<?xml version="1.0" standalone="no"?><!DOCTYPE svg PUBLIC "-//W3C//DTD SVG 1.1//EN" "http://www.w3.org/Graphics/SVG/1.1/DTD/svg11.dtd"><svg t="1738836284112" class="icon" viewBox="0 0 1024 1024" version="1.1" xmlns="http://www.w3.org/2000/svg" p-id="2843" xmlns:xlink="http://www.w3.org/1999/xlink" width="200" height="200"><path d="M360.47893 889.913957C585.837947 875.663713 736.908639 830.147407 813.701064 753.354982 964.550511 602.505535 886.661913 403.93738 753.361286 270.636752S421.492503 59.447527 270.643056 210.296974c-76.802482 76.802482-122.318788 227.913401-136.558975 453.3227-7.391623 117.592172 81.921306 218.912717 199.513478 226.324453a213.333333 213.333333 0 0 0 26.891428 0z" fill="#E0291D" p-id="2844"></path><path d="M296.217066 748.155704C525.659074 734.428404 679.183585 688.751192 756.820766 611.11401c48.25171-48.25171 73.101642-101.400998 80.21168-155.736969 2.081722-50.07196-85.048918-158.522655-175.699379-249.173116-113.780709-49.780317-233.142848-108.179167-383.992295 42.67028a18124.373333 18124.373333 0 0 1-121.111992 303.338124l-0.040227-0.020113c-29.797794 72.679263 4.947862 155.757082 77.627125 185.554876a142.222222 142.222222 0 0 0 62.411445 10.398555z" fill="#EA4136" p-id="2845"></path><path d="M753.361286 270.636752c133.300628 133.300628 211.189225 331.868783 60.339778 482.71823-76.792425 76.792425-227.863117 122.308731-453.222134 136.558975a207.786667 207.786667 0 0 1-26.881371 0.03017c-117.592172-7.411736-206.905101-108.732281-199.493365-226.324453l1.377758-20.284222C151.099898 429.119181 196.163656 284.776374 270.643056 210.296974 419.984009 60.956021 616.098346 135.807517 749.338634 266.654327L753.361286 270.636752z m-40.226519 40.226519C575.821544 173.550048 419.551574 141.841495 310.869576 250.523493c-64.63396 64.63396-106.570106 203.857942-119.995707 416.666285-5.43058 86.245657 60.06825 160.554094 146.293793 165.984674 6.587093 0.412322 13.103789 0.412322 19.731108-0.040226l19.429409-1.327476C578.154682 817.093901 710.841855 775.761153 773.474545 713.128462c107.555655-107.555655 77.617069-261.733847-56.136107-398.021293L713.134767 310.863271z" fill="#191919" p-id="2846"></path><path d="M491.587213 698.606689m10.056629 10.05663l0 0q10.05663 10.05663 0 20.113259l-20.113259 20.11326q-10.05663 10.05663-20.11326 0l0 0q-10.05663-10.05663 0-20.11326l20.11326-20.113259q10.05663-10.05663 20.113259 0Z" fill="#740700" opacity=".596" p-id="2847"></path><path d="M349.366354 682.958573m10.05663 10.05663l0 0q10.05663 10.05663 0 20.113259l-20.113259 20.11326q-10.05663 10.05663-20.11326 0l0 0q-10.05663-10.05663 0-20.11326l20.11326-20.113259q10.05663-10.05663 20.113259 0Z" fill="#740700" opacity=".596" p-id="2848"></path><path d="M510.272431 550.492646m10.05663 10.056629l0 0q10.05663 10.05663 0 20.11326l-20.11326 20.11326q-10.05663 10.05663-20.11326 0l0 0q-10.05663-10.05663 0-20.11326l20.11326-20.11326q10.05663-10.05663 20.11326 0Z" fill="#740700" opacity=".596" p-id="2849"></path><path d="M339.611423 507.832422m10.05663 10.05663l0 0q10.05663 10.05663 0 20.113259l-20.113259 20.11326q-10.05663 10.05663-20.11326 0l0 0q-10.05663-10.05663 0-20.11326l20.11326-20.113259q10.05663-10.05663 20.113259 0Z" fill="#FFFFFF" p-id="2850"></path><path d="M510.272431 394.051713m10.05663 10.05663l0 0q10.05663 10.05663 0 20.113259l-20.11326 20.11326q-10.05663 10.05663-20.11326 0l0 0q-10.05663-10.05663 0-20.11326l20.11326-20.113259q10.05663-10.05663 20.11326 0Z" fill="#740700" opacity=".596" p-id="2851"></path><path d="M424.941927 251.840911m10.05663 10.05663l0 0q10.05663 10.05663 0 20.11326l-20.11326 20.113259q-10.05663 10.05663-20.113259 0l0 0q-10.05663-10.05663 0-20.113259l20.113259-20.11326q10.05663-10.05663 20.11326 0Z" fill="#FFFFFF" p-id="2852"></path><path d="M673.622268 656.962185m10.05663 10.05663l0 0q10.05663 10.05663 0 20.113259l-20.11326 20.11326q-10.05663 10.05663-20.113259 0l0 0q-10.05663-10.05663 0-20.11326l20.113259-20.113259q10.05663-10.05663 20.11326 0Z" fill="#740700" opacity=".596" p-id="2853"></path><path d="M684.684561 529.665365m10.05663 10.05663l0 0q10.05663 10.05663 0 20.11326l-20.11326 20.113259q-10.05663 10.05663-20.113259 0l0 0q-10.05663-10.05663 0-20.113259l20.113259-20.11326q10.05663-10.05663 20.11326 0Z" fill="#740700" opacity=".596" p-id="2854"></path><path d="M768.44623 255.551808L678.177922 109.368637l-36.656416 81.810683-137.594809-53.682289 123.525584 140.822986L632.681728 391.31631l113.016406 5.209334 140.822987 123.525583-53.692347-137.584752 81.82074-36.666472z" fill="#89AD05" p-id="2855"></path><path d="M604.261693 392.623671l-4.756786-103.050285-116.958604-133.330797-1.417985-1.739797c-17.005761-22.335775 6.114431-54.064442 33.136595-43.515037l112.372781 43.846905 25.594123-57.1116 0.92521-1.890647c10.187366-19.0372 37.621852-20.223882 49.237259-1.407928L789.112605 234.885433l140.460948 86.718319 1.769967 1.166569c17.518649 12.611014 15.105058 39.944933-5.068542 48.9959l-57.121657 25.584066 43.856962 112.382838 0.744191 2.111892c8.367116 26.810975-24.196251 48.734428-45.999025 29.606719l-133.340854-116.968661-103.050285-4.756786a28.444444 28.444444 0 0 1-27.102617-27.102618zM659.894969 364.103069l87.10047 4.012596 2.403535 0.211189a28.444444 28.444444 0 0 1 15.044718 6.818395l53.189515 46.672819-11.313709-29.013377-0.724077-2.132006a28.444444 28.444444 0 0 1 15.597833-34.162371l32.794669-14.712849-100.475788-62.03935-2.202402-1.498437a28.444444 28.444444 0 0 1-7.059754-7.763719l-62.069519-100.485844-14.692736 32.794669-1.005663 2.011326a28.444444 28.444444 0 0 1-35.288714 12.86243l-29.023433-11.323765 46.682875 53.199571a28.444444 28.444444 0 0 1 7.029584 17.448253L659.894969 364.103069z" fill="#191919" p-id="2856"></path><path d="M857.950235 222.364929a28.444444 28.444444 0 0 1-8.045303 56.317127C812.353476 273.311816 777.497197 286.72736 743.304656 320.919901a28.444444 28.444444 0 1 1-40.226519-40.226519c46.260497-46.260497 98.554972-66.373757 154.872098-58.328453z" fill="#191919" p-id="2857"></path></svg>